PathFileType	4	(X/Y/Z)	C:/Users/beibeiliu/ov580/test_trc\sequence.6_training_dense_right.trc
DataRate	CameraRate	NumFrames	NumMarkers	Units	OrigDataRate	OrigDataStartFrame	OrigNumFrames
120	120	10	19	mm	120	63	125
Frame#	Time	ThumbCMC			ThumbMCP			ThumbIP			ThumbTip			IndexMCP			IndexPIP			IndexTip			MiddleMCP			MiddlePIP			MiddleTip			RingMCP			RingPIP			RingTip			PinkyMCP			PinkyPIP			PinkyTip			BackHand1			BackHand2			BackHand3	
		X0	Y0	Z0	X1	Y1	Z1	X2	Y2	Z2	X3	Y3	Z3	X4	Y4	Z4	X5	Y5	Z5	X6	Y6	Z6	X7	Y7	Z7	X8	Y8	Z8	X9	Y9	Z9	X10	Y10	Z10	X11	Y11	Z11	X12	Y12	Z12	X13	Y13	Z13	X14	Y14	Z14	X15	Y15	Z15	X16	Y16	Z16	X17	Y17	Z17	X18	Y18	Z18	
62	0.516667	45.7191	32.9939	68.2804	63.6034	18.3722	46.8814	71.5648	15.0272	20.4339	80.4827	22.1566	2.39291	22.0318	32.337	9.89113	26.0883	23.8481	-15.2927	48.5833	9.94448	-29.7736	37.866	46.1788	-7.53437	62.3787	34.2072	-15.7098	82.1222	37.4978	12.3952	53.1886	63.4687	-0.352609	78.3435	47.5825	2.87912	83.3214	50.0678	32.2189	60.2125	80.5137	5.28611	79.4007	62.7204	8.63672	77.1756	54.7277	33.86	30.5972	79.4866	42.55	31.841	88.0902	69.0717	23.7045	57.1142	58.3532	
63	0.525	46.4978	30.1313	67.4867	64.9717	17.5328	46.5595	74.3776	13.3066	24.1159	84.774	23.3194	1.79131	25.4796	29.4713	7.86148	35.2607	14.7174	-16.9098	63.9341	14.5783	-22.0535	39.985	45.0236	-4.03134	63.9801	35.5863	-14.8666	84.917	39.3715	15.8081	53.1346	62.7142	0.992986	79.0279	52.372	2.62305	84.5388	51.0857	29.0022	59.0743	79.0443	6.93142	76.6609	63.598	7.8232	80.4157	55.6111	33.5342	26.9524	76.3537	39.7379	29.3186	83.1247	70.2823	22.7749	51.337	59.1926	
64	0.533333	47.2176	31.7829	72.1625	66.4625	15.1067	45.0294	77.2591	13.2667	26.7766	85.0896	25.2583	3.53092	25.3833	24.2739	9.72186	39.6707	14.2131	-17.9623	67.0125	13.8904	-20.5644	40.6334	39.7842	-3.39227	67.9619	36.5689	-13.3188	85.024	35.17	14.176	53.7291	60.1856	0.714687	83.1419	51.3689	5.21483	84.874	48.2918	28.9868	58.8784	75.5061	6.97433	79.9582	62.7897	10.6681	82.325	57.0628	35.2071	27.8305	75.5872	38.8308	27.3361	81.8331	68.6838	22.9011	52.3488	60.2063	
65	0.541667	46.0594	30.3216	67.9225	64.194	18.6131	44.4017	73.9441	14.1634	23.4702	84.1822	24.4042	4.17165	23.4453	30.7614	7.43808	33.3137	25.6722	-21.549	55.3597	17.4462	-30.0008	42.4367	46.708	-9.22781	67.2065	37.5378	-15.7671	83.513	33.6251	10.6179	56.5395	58.4087	-1.5417	80.134	47.7665	3.50273	82.1431	45.6279	31.4592	63.1944	74.9684	5.36462	83.4573	62.2235	12.7736	80.1645	55.0645	33.7213	30.6775	78.4501	40.8786	31.6634	81.4825	69.49	21.3274	56.3105	55.6745	
66	0.55	42.6172	33.2824	62.2167	59.9615	20.0216	40.0069	69.503	15.7243	14.7417	81.2115	27.1169	-1.11629	21.2027	45.0142	-0.507763	21.5783	38.3426	-24.5748	43.3456	26.9086	-43.8317	42.0822	55.5357	-9.27819	67.2637	41.6783	-19.7668	81.7227	35.8864	10.82	62.3755	64.8756	-6.06452	83.7896	48.8961	3.53514	81.5406	45.641	28.3461	69.2438	79.2822	3.88761	84.6952	62.9725	7.81626	82.3714	56.7699	35.3145	36.8484	87.557	35.0154	39.0165	88.2174	64.3931	25.3435	63.9118	54.9441	
67	0.558333	38.4656	35.6652	59.3187	54.1987	21.3527	34.9086	64.231	21.1808	11.4195	78.5683	25.2169	-4.5079	20.8543	56.1407	-2.45499	21.2347	50.2332	-28.9197	39.1714	40.1982	-47.3686	43.9931	58.3778	-14.2931	66.3477	45.5098	-22.4152	79.5307	35.1155	5.16378	63.3671	70.9637	-4.00272	81.3607	49.3208	-0.916738	80.3121	45.3242	26.6688	76.324	81.5872	4.51127	86.1536	56.7121	10.6527	82.0211	53.8114	33.5599	43.3578	90.2656	38.1933	45.5426	93.3792	66.8673	25.0987	68.2432	50.9021	
68	0.566667	36.6634	38.0761	59.6451	48.7398	23.1411	36.4634	58.304	15.779	11.2063	73.8028	23.7842	-6.08623	23.1771	62.7798	0.898424	25.2259	61.9082	-26.7976	39.6124	42.2778	-42.4302	46.8639	66.14	-14.1927	64.7976	47.7139	-21.774	75.3689	33.615	6.02137	67.4618	71.0625	-3.66429	79.1558	46.8644	-0.0733624	75.7128	42.0426	29.6271	78.764	77.439	6.16419	85.6869	56.786	8.66612	77.1574	51.0331	35.5823	47.3964	90.118	41.3043	50.1594	91.783	66.1654	30.6411	75.2769	52.1642	
69	0.575	33.3895	48.9801	57.2034	39.3829	30.6345	34.9509	47.7241	26.5716	8.11795	63.4426	29.3741	-5.1822	19.9678	76.9376	0.0615712	24.529	74.2166	-25.4163	37.5251	53.0974	-38.0858	43.7283	76.2625	-9.02932	57.0145	53.596	-21.7682	68.5901	39.183	6.35557	65.9601	76.5383	0.0864907	72.9369	50.6052	-0.863094	75.0029	44.6453	28.4602	78.0419	76.9434	7.93023	87.1308	56.8197	10.8336	78.1937	51.1195	34.3057	55.0677	96.9815	43.1762	53.3875	91.1163	73.9771	31.866	79.1424	59.914	
70	0.583333	28.6863	62.6069	60.4114	28.949	47.7056	31.2197	32.6199	42.1946	6.04667	51.3217	45.207	-10.3483	25.8857	103.784	4.98205	25.0524	101.189	-20.7101	30.6576	74.4361	-36.0151	48.1856	97.0728	-3.88357	48.8526	73.9407	-21.8207	57.4175	51.1289	0.871331	63.6688	87.2073	2.88004	65.1468	61.1217	-3.01109	61.6002	49.1813	23.2391	77.9532	83.8151	9.22153	77.5891	59.2248	11.9592	68.2109	54.0796	31.2787	63.6601	103.615	47.3817	62.396	96.6882	73.9802	36.951	96.4377	62.7077	
71	0.591667	26.7772	76.0921	60.9122	18.5711	62.8551	32.6554	27.8979	63.3934	7.11893	44.0199	61.7202	-12.6771	30.3346	121.774	14.7711	32.4902	124.033	-13.9257	27.8382	106.531	-32.1139	47.8052	111.192	-1.65049	47.1414	91.1804	-19.96	45.2932	63.6215	2.46938	65.6037	96.2704	3.75576	64.4195	71.4429	-2.11292	56.1883	57.1868	24.4603	81.0885	89.7076	13.5985	71.3836	68.4827	8.79459	64.4657	60.0754	29.7285	71.6578	108.701	55.1263	69.1998	95.8321	81.9536	44.0936	101.185	69.5501	
